@startuml
scale 350 width
title <color:silver><size:25>Smashing Commit, previous To                                    jalbertomr.blogspot.com

skinparam backgroundColor royalblue
skinparam arrowcolor white
skinparam arrowfontStyle bold
skinparam arrowfontcolor w

skinparam state {
  backgroundColor SkyBlue
  BorderColor gray
  backgroundColor<< Stage >> LimeGreen
  backgroundColor<< WorkDir >> Tomato
  backgroundColor<< History >> Khaki
  FontSize 16
  FontStyle bold
  fontcolor navy
}


state Working_Directory << WorkDir >>
state "Stage (index)" as Stage  << Stage >>
state _HEAD <<History>>

state HEAD
state master
state 48ed828 <<History>>
state 3f95103 <<History>>
state 5ec83b9 <<History>>


[*] --> 48ed828 : commit_01
48ed828 --> 3f95103 : commit_02
3f95103 --> 5ec83b9 : commit_03
48ed828 : <size:20>file1:v1\n
3f95103 : <size:20>file1:v2\n<size:20>file2: v1
5ec83b9 : <size:20>file1:v3\n<size:20>file2:v1
HEAD -right-> master
master -right-> 48ed828

Working_Directory : \n<size:20>file1:v1\n<size:20>.
Stage : \n<size:20>file1:v1\n<size:20>.
_HEAD : <size:16>48ed828\n<size:20>file1:v1\n<size:20>.



@enduml